<?xml version="1.0" standalone="no"?>
<!DOCTYPE svg PUBLIC "-//W3C//DTD SVG 20010904//EN"
 "http://www.w3.org/TR/2001/REC-SVG-20010904/DTD/svg10.dtd">
<svg version="1.0" xmlns="http://www.w3.org/2000/svg"
 width="640.000000pt" height="640.000000pt" viewBox="0 0 640.000000 640.000000"
 preserveAspectRatio="xMidYMid meet">

<g transform="translate(0.000000,640.000000) scale(0.100000,-0.100000)"
fill="#000000" stroke="none">
<path d="M5 6379 c-10 -30 0 -33 13 -4 6 14 7 25 2 25 -5 0 -12 -9 -15 -21z"/>
<path d="M166 6358 c7 -54 -19 -92 -76 -109 -33 -10 -43 -9 -65 5 l-25 16 1
-42 c1 -24 4 -33 6 -20 4 18 11 22 44 22 89 0 150 59 134 131 -10 47 -25 44
-19 -3z"/>
<path d="M892 6393 c65 -127 85 -228 68 -334 -31 -187 -177 -291 -468 -334
-174 -27 -282 -2 -364 82 -54 56 -80 105 -107 200 -15 51 -20 60 -20 37 -1
-17 6 -51 14 -75 9 -24 13 -54 10 -66 -8 -35 21 -158 52 -215 15 -28 42 -63
60 -77 18 -14 33 -34 33 -43 0 -28 37 -47 74 -38 47 10 56 18 56 46 0 37 40
32 63 -7 16 -30 20 -31 62 -26 55 6 75 21 75 57 0 26 5 30 52 44 29 8 52 14
53 13 0 -1 7 -15 16 -32 13 -27 20 -30 59 -29 56 1 66 16 75 110 l7 75 52 33
c138 88 190 231 155 422 -12 65 -55 164 -71 164 -5 0 -8 -3 -6 -7z m-740 -632
c23 -17 65 -38 92 -46 97 -29 294 -13 435 34 35 12 65 21 66 19 2 -2 1 -24 -2
-50 l-5 -47 -55 -11 c-30 -7 -58 -8 -61 -5 -4 4 -1 10 5 12 7 3 23 14 35 25
25 22 20 21 -67 -16 -76 -32 -105 -34 -105 -4 0 34 -14 11 -14 -24 -1 -30 -4
-32 -54 -43 -52 -12 -54 -12 -63 12 -5 13 -9 28 -9 33 0 5 -5 12 -11 16 -9 5
-10 -1 -5 -20 5 -21 3 -26 -13 -26 -11 0 -26 -7 -34 -15 -8 -7 -28 -17 -43
-20 -16 -4 -37 -9 -46 -12 -11 -2 -18 1 -18 9 0 7 -20 33 -45 57 -49 49 -80
118 -91 203 l-6 53 35 -51 c20 -28 55 -66 79 -83z m578 -125 c0 -17 -22 -26
-61 -26 -38 0 -39 27 -1 33 53 8 62 7 62 -7z m-240 -47 c0 -5 -17 -17 -37 -25
-30 -13 -41 -13 -62 -3 -26 12 -26 12 19 25 58 16 80 17 80 3z m-210 -29 c0
-12 -65 -24 -82 -14 -9 6 -6 10 12 15 37 10 70 10 70 -1z"/>
<path d="M1305 6390 c-4 -6 -10 -43 -14 -83 -5 -40 -11 -80 -16 -89 -5 -13 2
-26 25 -48 37 -34 55 -37 82 -13 17 15 20 16 35 0 14 -14 15 -20 4 -40 -15
-29 -5 -55 35 -86 32 -25 61 -27 86 -4 18 16 21 16 64 -7 28 -16 42 -30 39
-38 -18 -48 -16 -62 10 -87 39 -36 67 -31 135 21 l60 47 59 -13 c82 -17 164
-9 233 22 116 53 237 216 253 340 5 36 14 58 28 70 17 13 18 18 7 18 -9 0 -21
-5 -28 -12 -9 -9 -21 -9 -50 0 -22 7 -43 12 -48 12 -17 -1 41 -29 60 -30 17 0
18 -6 13 -54 -7 -71 -35 -132 -93 -206 -93 -119 -217 -173 -343 -150 -207 39
-484 258 -507 401 -4 22 -11 39 -17 39 -5 0 -7 -13 -3 -32 20 -99 123 -218
276 -317 52 -34 99 -61 105 -61 5 0 17 -5 25 -10 13 -8 12 -11 -5 -25 -63 -50
-60 -49 -110 -15 -25 17 -45 33 -45 36 0 3 21 3 48 -1 40 -4 43 -4 22 6 -14 6
-45 20 -70 31 -78 34 -92 46 -80 68 8 14 8 20 0 20 -6 0 -15 -11 -22 -25 -12
-27 -24 -24 -85 22 -32 23 -33 25 -18 53 19 37 19 51 0 26 -14 -18 -16 -19
-34 -2 -10 10 -25 16 -33 14 -7 -1 -29 7 -48 19 l-35 22 6 83 c7 86 6 97 -6
78z m59 -232 c-8 -13 -68 25 -72 46 -3 15 3 13 37 -10 22 -14 38 -31 35 -36z
m124 -90 c43 -30 45 -33 23 -36 -27 -4 -74 27 -79 52 -5 23 3 20 56 -16z m213
-145 c34 -23 38 -28 24 -36 -20 -11 -68 20 -73 47 -5 22 2 20 49 -11z"/>
<path d="M1620 6391 c0 -18 17 -20 36 -6 18 14 18 14 -8 15 -16 0 -28 -4 -28
-9z"/>
<path d="M2756 6375 c-4 -14 -4 -30 -1 -34 2 -5 -11 -25 -30 -45 -84 -89 -130
-224 -123 -357 7 -119 45 -184 166 -281 19 -16 22 -28 22 -97 0 -86 5 -95 60
-111 27 -8 35 -6 56 15 13 13 24 29 24 34 0 6 20 3 48 -8 41 -16 47 -23 50
-50 4 -35 30 -57 80 -67 35 -7 72 15 72 43 0 9 8 13 22 11 16 -2 24 -12 28
-33 5 -31 38 -55 77 -55 25 0 53 24 53 46 0 8 4 14 9 14 5 0 28 18 51 41 54
53 98 146 109 235 5 38 19 92 32 119 16 37 23 75 27 150 3 62 10 108 18 120
20 28 18 48 -15 120 -30 65 -30 65 -71 65 -34 0 -48 7 -82 40 -48 45 -165 110
-199 110 -16 0 -5 -8 32 -24 74 -30 117 -57 157 -99 l33 -34 -25 -38 c-14 -21
-26 -49 -26 -62 0 -62 59 -115 130 -118 l35 -1 3 -58 c6 -106 -52 -251 -133
-332 -74 -74 -142 -98 -260 -91 -167 10 -369 86 -463 174 -72 68 -105 143
-104 242 0 131 40 245 112 318 l31 32 36 -25 c54 -36 106 -33 149 10 28 28 34
41 33 73 l-1 38 -9 -40 c-19 -80 -75 -108 -147 -73 -43 20 -59 49 -49 88 3 11
2 20 -3 20 -4 0 -11 -11 -14 -25z m791 -143 c6 -4 24 -35 39 -69 25 -60 26
-64 10 -88 -10 -15 -24 -29 -32 -32 -26 -10 -81 7 -109 33 -24 22 -27 31 -22
72 7 68 68 113 114 84z m-42 -608 c-25 -88 -47 -124 -110 -182 l-58 -54 -43
12 c-24 7 -42 17 -41 24 1 6 -11 12 -26 14 -25 3 -28 7 -23 28 10 38 -11 28
-24 -12 -9 -27 -16 -34 -29 -29 -9 3 -35 11 -58 18 -47 12 -48 14 -33 51 11
30 3 34 -15 9 -12 -16 -15 -16 -58 1 -26 9 -63 29 -83 42 -20 14 -39 22 -43
19 -6 -6 16 -26 49 -45 31 -18 0 -21 -54 -5 l-56 16 0 56 c0 43 3 53 13 45 20
-16 136 -60 217 -81 108 -28 189 -35 257 -21 82 17 123 41 179 103 27 30 51
53 52 51 2 -1 -4 -29 -13 -60z m-644 -126 c43 -12 49 -23 20 -33 -22 -7 -68
12 -75 31 -7 17 5 17 55 2z m245 -75 c57 -18 62 -33 11 -33 -33 0 -77 23 -77
41 0 12 5 12 66 -8z m217 -53 c5 -4 4 -11 -2 -14 -11 -7 -81 19 -81 30 0 8 72
-5 83 -16z"/>
<path d="M3771 6389 c-1 -9 8 -41 18 -71 48 -138 136 -218 277 -248 49 -11 50
-12 87 -85 l37 -75 44 0 c49 0 76 24 76 67 0 18 6 23 24 23 13 0 36 3 52 6 25
5 30 2 41 -25 10 -28 15 -31 55 -31 55 0 88 22 88 59 0 26 15 41 39 41 4 0 13
-12 20 -26 11 -24 16 -26 54 -21 44 6 67 27 67 63 0 12 10 43 22 70 15 34 22
70 22 119 1 77 -10 145 -24 145 -5 0 -5 -14 1 -32 14 -50 10 -158 -7 -203 -9
-22 -21 -54 -27 -72 -10 -27 -17 -32 -52 -35 -22 -3 -43 0 -46 5 -4 5 -21 6
-38 2 -27 -6 -31 -4 -31 14 0 12 -5 21 -11 21 -8 0 -10 -14 -6 -39 l5 -39 -47
-7 c-25 -3 -54 -8 -63 -11 -14 -4 -18 1 -18 18 0 13 -5 30 -10 38 -8 12 -10 9
-10 -13 l0 -29 -95 4 c-96 3 -125 -5 -60 -18 50 -9 43 -21 -16 -29 -55 -8 -55
-7 -87 46 l-22 36 103 6 c251 15 422 96 484 227 25 56 38 110 25 110 -5 0 -13
-17 -17 -37 -22 -120 -134 -214 -305 -256 -248 -61 -448 -31 -544 83 -29 35
-76 121 -76 142 -1 21 -28 75 -29 57z m959 -349 c0 -11 -60 -29 -77 -22 -24 8
-13 21 20 25 17 2 38 5 45 5 6 1 12 -2 12 -8z m-181 -56 c-19 -19 -79 -28 -99
-15 -21 14 -11 19 51 29 62 9 69 8 48 -14z m-259 -34 c0 -13 -34 -30 -63 -30
-29 0 -44 27 -19 33 32 9 82 7 82 -3z"/>
<path d="M4173 6385 c-67 -29 -83 -109 -31 -148 56 -42 173 -17 207 44 44 80
-73 149 -176 104z m132 -17 c14 -6 28 -22 32 -35 23 -95 -161 -145 -208 -57
-36 67 88 132 176 92z"/>
<path d="M4263 6324 c-3 -8 1 -23 10 -32 15 -14 17 -14 23 1 8 21 -1 47 -16
47 -6 0 -13 -7 -17 -16z"/>
<path d="M4170 6301 c0 -21 5 -31 16 -31 11 0 14 8 12 27 -4 39 -28 42 -28 4z"/>
<path d="M4470 6375 c0 -29 27 -45 41 -24 14 22 6 44 -19 47 -18 3 -22 -1 -22
-23z"/>
<path d="M5081 6361 c-25 -48 -26 -69 -6 -97 11 -16 12 -29 5 -55 -15 -52 -12
-108 10 -195 11 -43 22 -110 24 -149 5 -94 36 -173 95 -237 27 -29 51 -63 55
-74 8 -27 36 -35 81 -23 30 9 35 14 35 39 0 27 3 30 30 30 23 0 30 -4 30 -20
0 -26 36 -43 78 -37 43 8 72 33 72 63 0 20 8 26 45 35 56 14 55 14 69 -12 18
-37 39 -44 85 -31 44 14 43 11 56 132 6 54 8 56 62 90 61 39 114 105 139 171
36 95 16 289 -38 377 -29 48 -40 39 -13 -11 62 -111 73 -293 22 -392 -66 -131
-219 -212 -464 -245 -240 -33 -389 63 -447 287 -16 61 -20 185 -8 213 5 11 23
15 61 15 47 1 57 5 82 33 20 22 29 43 29 66 0 41 -8 66 -22 66 -5 0 -6 -5 -3
-11 13 -19 7 -79 -9 -104 -18 -27 -85 -50 -117 -40 -12 4 -27 21 -34 38 -12
28 -11 36 7 70 11 22 17 41 14 44 -2 3 -14 -13 -25 -36z m124 -567 c67 -69
135 -94 253 -94 100 0 220 19 306 49 33 12 61 21 63 21 5 0 3 -53 -3 -77 -5
-17 -18 -24 -55 -32 -61 -13 -59 -13 -59 -1 0 5 14 17 31 25 51 27 26 27 -32
1 -74 -34 -129 -43 -129 -23 0 9 -5 19 -11 22 -6 5 -9 -6 -7 -31 l3 -38 -58
-11 -57 -12 -11 38 c-12 38 -32 47 -22 10 4 -15 -2 -21 -27 -26 -17 -4 -29
-10 -25 -13 3 -4 -15 -12 -40 -18 l-46 -12 -42 45 c-68 74 -92 125 -106 223
-8 52 -8 54 7 30 9 -14 39 -48 67 -76z m615 -154 c0 -24 -82 -42 -95 -20 -3 5
9 14 27 19 44 12 68 13 68 1z m-254 -59 c-26 -28 -106 -36 -106 -10 0 8 67 26
104 28 18 1 18 0 2 -18z m-196 -16 c0 -16 -62 -31 -82 -19 -8 5 2 12 32 20 25
7 46 12 48 13 1 1 2 -6 2 -14z"/>
<path d="M6386 6378 c-3 -13 -6 -43 -6 -67 0 -25 -5 -60 -12 -78 -11 -30 -10
-36 10 -55 12 -13 22 -17 22 -11 0 7 -4 15 -10 18 -5 3 -10 13 -10 21 0 8 3
13 8 11 4 -3 7 37 8 89 1 52 0 94 -1 94 -2 0 -5 -10 -9 -22z"/>
<path d="M1762 6324 c-16 -11 -22 -25 -22 -52 0 -86 98 -158 177 -131 57 18
69 72 31 129 -43 62 -136 89 -186 54z m113 -14 c92 -44 102 -160 14 -160 -58
0 -124 52 -134 105 -6 33 0 46 30 63 28 16 43 15 90 -8z"/>
<path d="M1795 6269 c-8 -25 -1 -34 20 -26 19 8 20 47 1 47 -8 0 -18 -9 -21
-21z"/>
<path d="M1880 6225 c-7 -8 -9 -23 -5 -32 6 -16 8 -16 26 6 18 22 18 41 0 41
-5 0 -14 -7 -21 -15z"/>
<path d="M3950 6321 c-13 -25 2 -61 25 -61 20 0 20 53 1 69 -12 10 -17 8 -26
-8z"/>
<path d="M2072 6138 c-17 -17 -15 -58 3 -58 18 0 49 45 40 60 -8 13 -28 13
-43 -2z"/>
<path d="M794 6076 c-8 -21 24 -72 38 -58 16 16 5 66 -15 70 -9 2 -20 -4 -23
-12z"/>
<path d="M5880 6071 c0 -30 11 -51 25 -51 20 0 28 18 21 46 -8 30 -46 34 -46
5z"/>
<path d="M534 6060 c-17 -6 -43 -21 -57 -34 -95 -88 28 -190 153 -126 46 24
62 49 58 92 -5 56 -82 89 -154 68z m128 -40 c26 -32 23 -47 -16 -86 -31 -31
-40 -34 -90 -34 -43 0 -61 5 -76 20 -56 56 19 135 120 126 30 -3 50 -11 62
-26z"/>
<path d="M602 5983 c4 -39 28 -42 28 -4 0 21 -5 31 -16 31 -11 0 -14 -8 -12
-27z"/>
<path d="M500 5971 c0 -10 7 -24 15 -31 12 -10 16 -9 21 4 3 9 4 23 0 31 -8
21 -36 19 -36 -4z"/>
<path d="M5615 6055 c-81 -29 -109 -99 -59 -146 35 -33 128 -35 171 -3 109 81
22 198 -112 149z m119 -26 c63 -49 3 -129 -96 -129 -104 0 -127 95 -33 136 46
20 98 17 129 -7z"/>
<path d="M5683 5994 c-3 -8 1 -23 10 -32 15 -14 17 -14 23 1 8 21 -1 47 -16
47 -6 0 -13 -7 -17 -16z"/>
<path d="M5592 5963 c4 -39 28 -42 28 -4 0 21 -5 31 -16 31 -11 0 -14 -8 -12
-27z"/>
<path d="M284 5976 c-10 -25 0 -61 17 -64 19 -4 30 18 22 46 -6 25 -32 37 -39
18z"/>
<path d="M5364 5965 c-7 -27 10 -55 32 -55 17 0 19 51 2 68 -18 18 -27 15 -34
-13z"/>
<path d="M2740 5941 c-13 -25 -13 -48 0 -56 18 -11 40 15 40 46 0 34 -24 39
-40 10z"/>
<path d="M2904 5887 c-52 -45 -24 -116 58 -151 109 -45 202 35 137 118 -47 59
-145 76 -195 33z m118 3 c40 -11 88 -60 88 -90 0 -10 -12 -28 -27 -40 -23 -18
-37 -21 -76 -17 -107 10 -156 103 -76 144 29 15 44 16 91 3z"/>
<path d="M2942 5848 c-15 -15 -15 -35 -1 -44 13 -8 29 13 29 39 0 20 -11 22
-28 5z"/>
<path d="M3037 5823 c-11 -10 -8 -53 3 -53 5 0 13 8 18 18 15 27 -2 55 -21 35z"/>
<path d="M3252 5798 c-18 -18 -15 -68 3 -68 19 0 40 43 32 64 -8 19 -19 20
-35 4z"/>
<path d="M1640 5504 c-51 -10 -146 -45 -188 -69 -33 -19 -53 -24 -80 -20 -34
5 -41 2 -90 -46 -51 -50 -53 -54 -48 -93 9 -63 9 -66 -9 -148 -15 -70 -15 -83
-1 -158 8 -45 26 -105 40 -135 49 -107 151 -187 258 -201 l49 -7 40 -78 c38
-76 40 -79 75 -79 50 0 71 14 78 54 7 36 24 46 84 46 25 0 32 -4 32 -20 0 -10
9 -24 19 -30 54 -29 131 7 131 61 0 23 4 29 23 29 13 0 26 -9 32 -22 8 -19 17
-23 49 -21 47 3 66 18 66 50 0 13 10 43 22 66 32 63 37 195 10 285 -12 37 -24
96 -27 131 -7 74 -28 141 -58 190 -13 22 -20 48 -18 72 2 33 -3 41 -55 88 -32
28 -63 51 -68 51 -6 0 -24 -7 -40 -15 -25 -13 -34 -13 -80 0 -52 16 -201 27
-246 19z m252 -34 c34 -12 36 -14 26 -42 -27 -76 27 -148 111 -148 26 0 56 7
69 16 22 15 23 14 55 -53 31 -66 32 -72 32 -198 0 -122 -2 -133 -28 -187 -51
-103 -147 -161 -329 -199 -80 -16 -128 -20 -215 -17 -104 4 -117 7 -180 39
-120 61 -187 175 -200 339 -4 55 -1 91 10 131 l16 54 65 0 c75 0 100 17 116
76 8 30 7 46 -5 75 -8 20 -15 38 -15 40 0 10 102 60 154 76 70 20 253 19 318
-2z m177 -36 c54 -49 58 -58 39 -99 -13 -29 -72 -49 -113 -39 -60 15 -86 105
-44 158 30 38 59 33 118 -20z m-666 -54 c10 -9 21 -35 24 -57 4 -32 1 -44 -22
-71 -23 -28 -33 -32 -75 -32 -38 0 -54 5 -70 22 -31 34 -24 58 32 115 55 56
73 60 111 23z m834 -525 c4 -49 1 -82 -10 -110 -13 -36 -40 -106 -43 -112 -3
-9 -94 -19 -94 -10 0 5 -13 7 -30 4 -25 -6 -30 -3 -30 13 0 11 -4 20 -10 20
-5 0 -10 -17 -10 -39 l0 -39 -56 -7 c-31 -4 -57 -5 -58 -3 -2 2 -8 17 -14 33
-9 25 -11 27 -11 8 -1 -29 -30 -36 -121 -31 -39 2 -70 0 -70 -4 0 -4 10 -8 23
-8 23 0 55 -16 47 -23 -3 -3 -30 -8 -60 -11 l-55 -7 -22 44 -22 44 87 6 c316
21 480 121 527 322 l7 30 10 -25 c5 -14 12 -56 15 -95z m-57 -260 c-13 -16
-80 -21 -80 -6 0 9 26 16 74 20 15 1 16 -2 6 -14z m-170 -34 c0 -18 -30 -33
-65 -33 -66 0 -61 21 8 33 23 3 45 7 50 8 4 0 7 -3 7 -8z m-260 -40 c0 -26
-73 -46 -91 -25 -13 16 -4 21 46 27 17 2 33 5 38 6 4 0 7 -3 7 -8z"/>
<path d="M1930 4960 c-13 -24 3 -60 25 -60 16 0 20 35 9 64 -8 22 -21 20 -34
-4z"/>
<path d="M1618 4938 c-97 -56 -55 -158 64 -158 49 0 98 26 124 65 14 21 15 30
4 56 -25 59 -121 78 -192 37z m160 -21 c29 -27 28 -53 -6 -87 -80 -80 -239
-18 -175 68 39 53 134 63 181 19z"/>
<path d="M1724 4897 c-8 -21 1 -47 16 -47 19 0 23 31 7 48 -15 14 -17 14 -23
-1z"/>
<path d="M1623 4874 c-3 -8 1 -23 10 -32 15 -14 17 -14 23 1 8 21 -1 47 -16
47 -6 0 -13 -7 -17 -16z"/>
<path d="M1407 4893 c-12 -12 -7 -50 8 -63 19 -15 35 -5 35 24 0 32 -27 56
-43 39z"/>
<path d="M4290 5487 c-55 -19 -68 -28 -85 -59 -11 -21 -39 -51 -62 -67 -42
-30 -108 -110 -136 -166 -8 -16 -35 -50 -59 -75 -68 -71 -100 -140 -105 -224
-2 -39 -9 -81 -15 -93 -17 -34 -2 -69 38 -88 34 -16 37 -16 55 1 29 26 51 3
43 -47 -8 -46 5 -65 55 -86 31 -13 36 -13 61 5 26 20 26 20 63 -3 49 -29 48
-27 37 -64 -8 -30 -6 -36 20 -62 15 -16 38 -29 49 -29 12 0 50 22 84 49 l62
49 55 -15 c154 -41 309 29 420 191 35 52 70 149 70 195 0 17 11 38 30 56 35
34 36 44 10 121 -22 63 -41 84 -75 84 -15 0 -32 16 -54 49 -70 109 -214 203
-346 226 -63 11 -78 17 -101 44 -30 36 -29 36 -114 8z m102 -14 c49 -44 0
-153 -69 -153 -69 0 -122 54 -103 104 11 29 20 35 79 51 63 18 72 18 93 -2z
m143 -58 c32 -9 86 -30 119 -48 67 -35 174 -134 199 -184 16 -30 16 -32 -2
-38 -28 -9 -54 -53 -55 -96 -1 -51 30 -90 85 -109 24 -8 45 -15 46 -16 2 0 -2
-27 -8 -60 -23 -125 -127 -260 -243 -315 -134 -64 -291 -26 -492 117 -143 102
-214 213 -214 333 0 127 89 291 199 364 22 15 25 14 57 -18 37 -38 88 -52 131
-38 33 11 73 66 73 99 0 29 20 31 105 9z m406 -284 c3 -3 15 -32 27 -64 18
-47 20 -63 10 -80 -15 -29 -27 -37 -60 -37 -87 0 -138 90 -87 154 32 41 85 54
110 27z m-982 -56 c-17 -61 -7 -153 23 -215 47 -96 191 -223 333 -295 l64 -32
-42 -31 -43 -31 -47 31 c-49 31 -55 54 -11 38 31 -12 62 -13 49 -2 -6 4 -28
14 -50 21 -22 8 -59 25 -83 38 -34 20 -40 28 -31 39 6 7 9 19 7 26 -3 7 -12
-1 -23 -19 l-18 -31 -54 35 c-52 35 -53 37 -38 59 8 13 15 31 14 41 0 15 -2
14 -11 -4 -13 -28 -20 -28 -42 -4 -10 11 -24 17 -31 15 -7 -3 -28 5 -47 17
l-33 22 6 77 c4 42 16 97 27 121 21 47 81 134 87 127 3 -2 0 -22 -6 -43z m-57
-342 c8 -10 6 -13 -8 -13 -18 0 -64 37 -64 52 0 10 56 -21 72 -39z m168 -135
c0 -14 -35 -8 -67 12 -20 12 -33 28 -33 40 0 19 4 18 50 -12 27 -18 50 -36 50
-40z m199 -149 c-20 -12 -73 23 -77 50 -4 22 -2 22 43 -9 35 -24 44 -35 34
-41z"/>
<path d="M4177 4992 c-10 -10 -17 -26 -17 -35 0 -24 37 -22 50 2 24 46 0 69
-33 33z"/>
<path d="M4299 4879 c-17 -17 -20 -29 -16 -61 9 -67 72 -118 147 -118 106 0
106 130 -1 185 -42 22 -105 19 -130 -6z m141 -17 c36 -27 63 -78 56 -106 -7
-29 -56 -51 -92 -42 -65 17 -126 95 -104 135 6 11 18 25 28 31 23 14 81 5 112
-18z"/>
<path d="M4346 4844 c-9 -9 -15 -21 -13 -27 6 -20 26 -18 37 3 16 30 -1 47
-24 24z"/>
<path d="M4420 4779 c-7 -11 -9 -24 -5 -27 9 -9 40 13 43 32 5 23 -25 20 -38
-5z"/>
<path d="M4612 4698 c-15 -15 -15 -45 0 -54 13 -8 48 30 48 52 0 17 -32 18
-48 2z"/>
<path d="M6351 5355 c-44 -47 -48 -65 -28 -105 11 -21 10 -34 -5 -83 -23 -76
-23 -145 2 -242 19 -73 66 -173 77 -162 2 3 -9 31 -25 63 -54 109 -71 250 -40
339 12 35 17 40 41 37 15 -1 27 2 27 8 0 5 -8 10 -18 10 -27 0 -52 32 -52 65
0 20 12 41 37 67 20 21 34 40 31 43 -3 3 -24 -15 -47 -40z"/>
<path d="M3221 5159 c-28 -17 -39 -18 -101 -9 -78 11 -177 1 -257 -26 -64 -22
-91 -36 -148 -79 -33 -26 -54 -35 -69 -31 -40 10 -62 -5 -95 -65 -27 -49 -32
-67 -26 -92 4 -18 6 -73 5 -124 -1 -67 4 -112 19 -168 12 -41 21 -97 21 -123
0 -94 43 -203 100 -257 18 -16 39 -45 46 -62 12 -28 19 -33 50 -33 48 0 74 16
74 44 0 21 16 36 40 36 4 0 13 -13 18 -30 13 -36 47 -47 97 -30 37 12 58 39
53 67 -2 12 10 20 47 29 29 8 51 9 53 4 2 -5 13 -21 24 -35 18 -23 26 -26 57
-20 20 3 41 12 47 18 6 7 16 48 22 92 8 57 16 83 28 90 147 86 201 190 192
370 -6 112 -28 177 -85 252 -24 32 -33 54 -33 82 0 45 -13 58 -92 94 -56 25
-56 25 -87 6z m93 -25 c80 -36 98 -80 52 -123 -28 -27 -94 -38 -124 -22 -54
29 -65 124 -19 156 27 19 25 20 91 -11z m-171 0 c37 -7 37 -7 37 -55 0 -95 74
-140 166 -100 56 25 65 20 107 -58 74 -136 73 -326 -2 -436 -86 -126 -325
-213 -556 -203 -116 6 -179 31 -235 94 -74 85 -130 263 -113 366 l8 53 36 -3
c51 -5 105 20 123 57 21 40 20 69 -4 116 l-21 40 31 26 c97 82 279 126 423
103z m-477 -142 c24 -17 44 -59 44 -93 0 -55 -46 -91 -109 -87 -40 3 -48 7
-60 32 -13 28 -12 34 20 93 30 56 37 63 64 63 17 0 35 -4 41 -8z m-18 -624
c91 -101 218 -129 425 -92 49 8 118 26 154 39 l65 23 -6 -36 c-3 -20 -6 -44
-6 -53 0 -12 -15 -19 -52 -27 -68 -13 -79 -5 -33 22 54 33 33 36 -32 5 -86
-41 -117 -45 -132 -17 -10 21 -11 20 -7 -14 4 -36 4 -36 -45 -48 -61 -15 -75
-10 -84 29 -4 17 -11 31 -16 31 -5 0 -7 -11 -3 -25 6 -23 3 -25 -25 -25 -20 0
-31 -5 -31 -14 0 -9 -16 -17 -41 -21 -38 -7 -44 -4 -81 31 -54 53 -84 107
-102 184 -20 84 -20 102 2 70 9 -14 32 -42 50 -62z m626 -171 c-10 -28 -94
-35 -94 -8 0 6 89 30 98 25 1 0 0 -8 -4 -17z m-244 -47 c0 -15 -36 -30 -74
-30 -45 0 -47 16 -3 29 43 12 77 13 77 1z m-202 -22 c-6 -16 -55 -31 -75 -24
-21 8 -12 16 29 26 47 11 50 11 46 -2z"/>
<path d="M3344 4646 c-10 -25 0 -61 17 -64 22 -4 31 22 19 53 -11 28 -28 33
-36 11z"/>
<path d="M3054 4611 c-43 -19 -75 -69 -67 -101 16 -60 101 -85 176 -52 86 38
99 126 22 157 -46 20 -81 18 -131 -4z m143 -23 c57 -54 -5 -128 -108 -128 -42
0 -89 34 -89 63 0 20 39 67 64 77 42 17 108 11 133 -12z"/>
<path d="M3140 4550 c0 -11 7 -23 15 -27 21 -8 28 1 20 26 -8 27 -35 27 -35 1z"/>
<path d="M3046 4541 c-9 -14 4 -41 20 -41 8 0 14 10 14 25 0 25 -23 35 -34 16z"/>
<path d="M2827 4544 c-12 -13 -7 -51 8 -64 24 -20 42 2 29 37 -9 27 -25 39
-37 27z"/>
<path d="M295 5006 c-62 -24 -85 -49 -85 -94 0 -14 -18 -45 -41 -70 -74 -85
-109 -185 -109 -319 0 -100 28 -171 94 -238 28 -29 59 -56 68 -61 13 -7 18
-30 24 -101 6 -83 9 -92 31 -102 13 -6 35 -11 48 -11 24 0 33 7 58 42 11 17
15 17 59 1 43 -16 47 -21 50 -53 3 -29 9 -38 40 -53 44 -22 85 -14 100 19 7
15 20 24 34 24 18 0 23 -6 26 -32 3 -29 8 -35 47 -48 42 -15 44 -14 60 9 9 13
36 43 60 65 24 23 54 57 67 77 27 44 64 152 64 190 0 15 14 69 31 119 23 71
30 107 28 158 -1 48 3 77 15 101 18 33 17 35 -9 102 -15 38 -31 72 -37 75 -5
3 -26 6 -46 6 -27 0 -45 8 -73 35 -102 97 -224 143 -378 143 -85 0 -100 3
-116 20 -23 25 -35 25 -110 -4z m127 -51 c6 -28 -16 -83 -40 -101 -35 -27
-116 -10 -144 30 -10 15 -10 58 1 74 4 8 37 24 72 37 64 23 64 23 85 3 12 -11
24 -30 26 -43z m226 10 c81 -19 173 -66 227 -116 l44 -40 -25 -36 c-58 -85 -5
-183 100 -183 30 0 35 -4 41 -30 9 -41 -3 -123 -27 -188 -82 -220 -219 -300
-440 -258 -303 57 -472 184 -494 369 -14 115 43 292 115 361 l30 28 30 -21
c86 -61 191 -13 191 88 0 16 6 32 13 34 25 11 134 6 195 -8z m387 -221 c35
-80 32 -118 -11 -135 -33 -12 -79 -1 -109 27 -56 52 -14 164 61 164 32 0 36
-4 59 -56z m-79 -581 c-25 -72 -61 -127 -115 -172 -49 -41 -51 -42 -91 -30
-22 7 -40 18 -40 26 0 7 -10 13 -23 13 -31 0 -38 9 -26 31 5 11 6 19 1 19 -5
0 -15 -14 -22 -31 -12 -27 -17 -30 -44 -26 -17 3 -44 10 -59 16 -26 10 -27 14
-21 47 5 27 4 35 -5 30 -6 -4 -11 -14 -11 -22 0 -8 -5 -14 -10 -14 -18 0 -137
57 -144 69 -4 6 -11 11 -17 11 -18 0 -8 -16 21 -34 45 -26 28 -35 -35 -18
l-55 15 0 53 0 53 66 -30 c36 -16 109 -41 162 -55 81 -22 112 -25 197 -22 88
3 107 7 154 33 29 16 70 48 90 71 42 49 51 38 27 -33z m-599 -117 c3 -2 -4 -9
-14 -14 -23 -13 -83 10 -83 32 0 13 6 13 46 1 25 -7 48 -16 51 -19z m211 -61
c54 -16 61 -35 14 -35 -32 0 -74 20 -80 38 -5 16 3 15 66 -3z m202 -48 l25
-11 -27 -4 c-29 -4 -68 13 -68 29 0 11 22 6 70 -14z"/>
<path d="M196 4504 c-12 -31 -6 -54 13 -54 20 0 31 18 31 51 0 23 -35 26 -44
3z"/>
<path d="M380 4462 c-64 -32 -64 -96 1 -144 77 -57 199 -28 199 48 0 37 -54
90 -104 103 -57 14 -55 14 -96 -7z m107 -13 c76 -28 100 -104 43 -134 -39 -20
-73 -19 -121 5 -114 59 -44 175 78 129z"/>
<path d="M394 4405 c-4 -8 -3 -22 0 -31 5 -13 9 -14 21 -4 8 7 15 21 15 31 0
23 -28 25 -36 4z"/>
<path d="M490 4379 c-8 -14 -9 -24 -2 -31 14 -14 32 -1 32 22 0 28 -17 33 -30
9z"/>
<path d="M702 4345 c-13 -28 -6 -55 12 -55 17 0 37 46 30 65 -9 23 -29 18 -42
-10z"/>
<path d="M5385 5008 c-68 -24 -84 -40 -85 -84 0 -22 -12 -43 -40 -74 -112
-121 -150 -337 -84 -476 16 -34 48 -75 90 -112 l64 -59 0 -75 c0 -88 11 -107
67 -115 40 -5 53 4 78 54 1 1 23 -6 51 -16 40 -16 48 -23 46 -41 -4 -28 21
-56 65 -71 28 -9 38 -8 58 5 14 9 25 23 25 31 0 10 10 15 30 15 27 0 29 -2 24
-30 -6 -27 -3 -31 31 -46 45 -18 81 -12 90 16 4 11 24 34 46 52 69 56 125 168
134 270 2 24 16 75 31 113 22 55 28 88 29 157 0 54 6 93 13 100 19 19 14 62
-14 127 -27 61 -34 67 -87 61 -10 -1 -39 18 -66 42 -103 93 -226 138 -374 138
-74 0 -93 3 -114 20 -31 24 -32 24 -108 -2z m115 -28 c31 -59 -14 -140 -78
-140 -76 0 -132 63 -100 112 18 27 127 68 150 56 10 -5 22 -17 28 -28z m216
-11 c78 -14 188 -67 247 -120 l48 -42 -20 -21 c-73 -78 -30 -183 79 -194 l50
-5 0 -68 c0 -117 -62 -262 -141 -334 -81 -72 -172 -95 -304 -75 -90 14 -230
57 -302 94 -70 35 -150 111 -180 170 -49 96 -42 250 16 372 25 50 82 124 96
124 2 0 21 -11 41 -25 48 -33 94 -32 133 0 31 27 57 86 47 110 -2 7 0 16 7 19
22 8 123 6 183 -5z m407 -233 c32 -67 30 -97 -9 -122 -21 -14 -31 -15 -64 -5
-70 21 -97 79 -65 141 19 37 42 51 80 47 26 -2 34 -10 58 -61z m-72 -542 c-19
-76 -55 -136 -115 -192 l-57 -52 -40 11 c-21 7 -39 18 -39 25 0 7 -12 14 -27
16 -22 2 -28 8 -26 26 2 12 -2 22 -7 22 -6 0 -10 -6 -10 -13 0 -7 -6 -22 -14
-32 -13 -19 -16 -19 -69 -2 l-55 18 9 32 c11 39 11 37 -1 37 -5 0 -10 -9 -10
-20 0 -11 -4 -20 -10 -20 -17 0 -94 33 -132 57 -51 32 -60 28 -18 -6 19 -16
32 -32 29 -35 -3 -3 -28 2 -56 11 -51 16 -51 16 -57 66 -3 28 -4 53 -2 55 3 2
15 -3 28 -12 12 -8 73 -32 133 -52 135 -45 289 -58 370 -30 57 19 124 69 155
114 29 42 36 35 21 -24z m-611 -154 c0 -15 -29 -19 -60 -9 -19 7 -30 18 -30
29 0 18 2 18 45 3 25 -8 45 -18 45 -23z m213 -56 c50 -17 54 -34 9 -34 -29 0
-72 24 -72 41 0 12 9 12 63 -7z m217 -56 c0 -4 -8 -8 -17 -8 -33 0 -63 12 -63
25 0 9 9 10 40 2 22 -6 40 -15 40 -19z"/>
<path d="M5280 4494 c-11 -29 -6 -44 16 -44 16 0 34 38 27 58 -9 21 -33 13
-43 -14z"/>
<path d="M5485 4473 c-32 -8 -65 -44 -65 -70 0 -66 63 -115 148 -115 40 0 51
5 75 32 29 33 30 52 1 97 -25 40 -109 69 -159 56z m90 -23 c36 -14 75 -58 75
-86 0 -30 -45 -64 -84 -64 -41 0 -95 28 -120 62 -16 23 -18 31 -8 53 19 41 81
56 137 35z"/>
<path d="M5484 4405 c-8 -20 3 -48 16 -40 13 8 13 55 0 55 -6 0 -13 -7 -16
-15z"/>
<path d="M5582 4388 c-17 -17 -15 -48 2 -48 18 0 32 38 19 51 -5 5 -14 4 -21
-3z"/>
<path d="M5792 4358 c-15 -15 -16 -55 0 -64 15 -9 40 25 36 50 -4 24 -20 30
-36 14z"/>
<path d="M1746 4051 c-59 -17 -86 -40 -86 -73 0 -9 -12 -24 -27 -32 -44 -23
-109 -91 -149 -159 -21 -34 -56 -80 -79 -103 -61 -62 -103 -153 -114 -249 -5
-44 -12 -87 -15 -96 -9 -20 39 -69 67 -69 11 0 28 7 37 15 15 14 19 13 34 -4
14 -16 15 -23 6 -41 -15 -28 -5 -55 30 -80 34 -24 67 -26 91 -4 16 14 21 14
64 -11 34 -21 44 -32 39 -44 -18 -43 -15 -58 16 -84 17 -15 39 -27 48 -27 9 1
46 23 82 50 36 28 70 48 77 46 6 -3 39 -10 73 -16 122 -22 232 20 329 126 69
76 108 149 123 235 9 45 19 69 35 82 34 27 37 53 12 120 -28 78 -35 87 -69 87
-21 0 -33 10 -59 50 -72 111 -204 198 -345 226 -64 14 -84 22 -104 45 -27 33
-34 33 -116 10z m110 -26 c37 -56 -11 -145 -78 -145 -41 0 -96 36 -104 66 -10
41 8 66 62 85 71 25 100 24 120 -6z m145 -51 c30 -9 80 -29 112 -46 60 -30
171 -132 196 -181 14 -25 13 -29 -7 -43 -82 -57 -59 -176 40 -206 l40 -12 -4
-46 c-11 -113 -127 -273 -236 -327 -50 -25 -68 -28 -147 -28 -78 1 -100 5
-162 32 -132 56 -290 177 -354 269 -45 66 -64 153 -49 228 18 93 81 206 152
271 32 30 63 55 67 55 5 0 16 -11 24 -24 23 -34 82 -59 122 -52 39 8 80 51 90
96 8 36 32 39 116 14z m393 -279 c8 -9 23 -41 33 -71 15 -50 16 -58 2 -82 -17
-31 -56 -40 -100 -21 -40 16 -59 46 -59 92 0 70 82 124 124 82z m-975 -51
c-19 -65 -6 -173 26 -232 52 -95 230 -246 348 -295 20 -9 37 -18 37 -21 0 -2
-17 -18 -38 -34 l-38 -31 -47 31 c-67 43 -58 61 17 32 9 -3 16 -1 16 5 0 6 -6
11 -14 11 -20 0 -156 70 -156 80 0 5 5 12 10 15 6 3 10 12 10 18 0 7 -12 -1
-26 -16 l-25 -29 -49 32 c-28 18 -50 35 -50 39 0 4 7 16 15 27 8 10 14 26 14
34 1 10 -5 8 -17 -8 -18 -23 -18 -23 -36 -4 -9 11 -25 18 -34 16 -9 -3 -30 6
-46 19 -28 23 -29 27 -27 93 3 77 30 150 84 220 18 23 33 41 34 40 1 -1 -2
-20 -8 -42z m-84 -329 c16 -13 26 -27 22 -31 -8 -9 -59 26 -65 44 -6 19 10 14
43 -13z m184 -160 c-16 -16 -83 26 -87 53 -3 23 -2 22 47 -10 32 -22 46 -36
40 -43z m205 -121 c19 -13 19 -14 1 -20 -26 -10 -69 17 -73 46 l-4 24 29 -19
c15 -10 37 -24 47 -31z"/>
<path d="M1632 3558 c-17 -17 -15 -58 2 -58 16 0 46 37 46 57 0 16 -32 17 -48
1z"/>
<path d="M1785 3460 c-36 -14 -48 -37 -42 -81 13 -96 142 -155 204 -93 21 21
24 32 20 61 -8 45 -59 100 -107 113 -41 12 -48 12 -75 0z m95 -25 c61 -31 92
-114 55 -145 -21 -17 -76 -15 -114 4 -34 18 -71 69 -71 99 0 48 72 72 130 42z"/>
<path d="M1800 3405 c-7 -8 -9 -22 -6 -31 5 -13 9 -14 21 -4 16 13 21 50 6 50
-5 0 -14 -7 -21 -15z"/>
<path d="M1876 3344 c-9 -25 -7 -34 9 -34 12 0 35 28 35 44 0 14 -38 5 -44
-10z"/>
<path d="M2076 3265 c-17 -18 -21 -50 -7 -59 14 -9 40 17 43 43 4 29 -14 37
-36 16z"/>
<path d="M4136 4054 c-32 -8 -88 -29 -123 -48 -49 -26 -72 -33 -101 -29 -34 4
-42 0 -89 -48 -55 -54 -63 -77 -42 -123 9 -19 8 -35 -5 -72 -35 -104 -11 -270
55 -380 52 -86 121 -134 226 -157 l58 -13 40 -75 40 -74 44 1 c50 1 71 21 71
66 0 27 1 28 55 28 42 0 55 -4 55 -15 0 -26 46 -48 85 -41 44 9 65 30 65 67 0
16 4 29 9 29 5 0 16 3 24 6 10 3 17 -3 21 -20 6 -23 12 -26 50 -26 49 0 77 22
75 61 -1 13 8 44 19 69 11 25 23 65 27 90 8 54 -10 176 -31 207 -7 12 -14 42
-14 67 0 68 -19 145 -51 206 -17 34 -28 70 -27 94 0 35 -6 44 -53 87 -57 50
-82 58 -114 35 -17 -12 -30 -11 -90 5 -83 21 -198 23 -279 3z m282 -19 c28 -9
52 -18 52 -20 0 -2 -5 -16 -12 -29 -17 -39 5 -102 45 -126 38 -24 91 -26 130
-5 27 14 28 13 47 -18 39 -64 54 -128 54 -238 1 -102 0 -109 -34 -175 -70
-137 -223 -207 -485 -221 -222 -12 -359 73 -418 261 -25 81 -29 207 -8 269 13
38 13 38 55 32 106 -16 178 75 131 165 -15 29 -15 29 28 54 123 72 279 91 415
51z m193 -37 c36 -30 49 -48 49 -68 0 -45 -21 -63 -82 -68 -51 -4 -56 -2 -81
28 -33 39 -35 87 -6 124 29 37 62 33 120 -16z m-672 -54 c41 -34 43 -88 5
-133 -22 -26 -33 -31 -70 -31 -34 0 -51 6 -69 25 -14 13 -25 32 -25 42 0 20
98 123 116 123 7 0 26 -12 43 -26z m836 -544 c0 -91 -3 -110 -22 -143 -13 -21
-23 -44 -23 -52 0 -17 -92 -33 -98 -17 -2 7 -13 7 -33 2 -25 -7 -29 -6 -29 11
0 10 -5 19 -11 19 -7 0 -10 -14 -7 -35 4 -39 4 -39 -74 -50 l-48 -6 0 30 c0
16 -4 33 -10 36 -6 3 -10 -5 -10 -19 0 -22 -5 -26 -46 -32 -25 -3 -68 -3 -95
0 -34 5 -49 4 -44 -4 3 -5 19 -10 36 -10 16 0 29 -5 29 -10 0 -13 -11 -16 -67
-24 -42 -6 -43 -5 -63 35 -12 22 -20 42 -18 43 2 1 53 8 113 14 303 32 457
132 491 316 12 70 29 12 29 -104z m-59 -245 c-22 -17 -62 -20 -71 -6 -6 11 17
18 60 20 28 0 29 0 11 -14z m-171 -45 c-14 -16 -29 -20 -59 -18 -72 5 -33 32
53 37 24 1 24 1 6 -19z m-255 -29 c0 -18 -30 -32 -61 -29 -44 4 -49 26 -7 31
61 7 68 7 68 -2z"/>
<path d="M4470 3516 c0 -34 10 -56 25 -56 19 0 28 36 15 60 -15 28 -40 26 -40
-4z"/>
<path d="M4204 3518 c-24 -5 -52 -20 -69 -38 -81 -85 40 -178 158 -121 66 32
83 81 45 126 -28 32 -79 44 -134 33z m104 -28 c89 -54 -17 -155 -132 -126 -38
9 -62 50 -48 81 27 59 119 82 180 45z"/>
<path d="M4265 3460 c-9 -15 5 -52 18 -47 15 5 16 49 0 54 -6 2 -14 -1 -18 -7z"/>
<path d="M4172 3425 c2 -14 8 -26 13 -26 6 0 11 12 13 26 2 18 -1 25 -13 25
-12 0 -15 -7 -13 -25z"/>
<path d="M3947 3445 c-9 -21 10 -68 26 -62 19 6 15 71 -4 75 -9 2 -19 -4 -22
-13z"/>
<path d="M676 3719 c-24 -19 -30 -20 -83 -8 -134 27 -321 -20 -430 -110 -29
-24 -41 -28 -73 -24 -36 5 -40 3 -64 -36 -14 -22 -26 -49 -26 -58 1 -10 12 3
26 30 22 42 28 47 58 47 62 0 107 -83 76 -141 -22 -40 -98 -61 -141 -39 -17
10 -19 7 -18 -32 2 -32 3 -35 6 -15 4 25 8 28 29 23 36 -9 97 10 125 40 31 34
32 98 0 143 l-22 31 61 40 c92 59 162 82 262 88 48 2 108 1 133 -3 44 -6 46
-8 40 -35 -7 -33 13 -87 44 -114 30 -27 99 -26 139 3 l31 22 35 -48 c86 -117
107 -313 47 -437 -70 -144 -287 -240 -546 -241 -105 0 -126 3 -172 24 -90 40
-155 129 -194 266 -12 39 -18 51 -18 33 -1 -15 4 -39 10 -55 7 -15 13 -59 15
-98 4 -106 38 -197 96 -260 26 -29 48 -57 48 -63 0 -20 31 -42 58 -42 38 0 72
26 72 56 0 35 45 34 54 -1 8 -32 44 -47 86 -35 45 13 60 28 60 60 0 22 5 29
29 33 16 3 40 9 54 12 20 5 27 2 32 -14 11 -36 45 -52 87 -40 41 11 44 17 53
110 8 77 10 81 51 102 49 25 115 98 142 157 61 131 30 347 -65 460 -18 22 -27
42 -25 61 5 45 -15 69 -85 100 -36 16 -66 29 -68 29 -1 0 -14 -9 -29 -21z
m104 -27 c65 -32 83 -65 57 -106 -20 -29 -83 -52 -121 -42 -32 8 -66 60 -66
100 0 33 34 76 59 75 9 0 41 -12 71 -27z m-640 -795 c23 -20 66 -44 94 -54
100 -35 338 -14 472 42 20 8 38 14 40 12 2 -1 0 -25 -4 -52 l-7 -48 -55 -13
c-30 -7 -56 -13 -57 -14 -2 0 -3 4 -3 10 0 5 14 16 30 25 17 9 30 20 30 25 0
6 -19 1 -41 -11 -51 -26 -130 -50 -141 -43 -4 3 -8 12 -8 20 0 8 -4 14 -9 14
-5 0 -6 -15 -1 -34 l7 -34 -55 -11 c-73 -15 -69 -15 -77 19 -4 16 -11 33 -17
36 -7 5 -9 -2 -4 -20 6 -23 4 -26 -20 -26 -15 0 -32 -6 -38 -14 -6 -8 -29 -17
-51 -20 -39 -5 -42 -3 -87 51 -53 62 -84 133 -94 215 l-6 53 29 -45 c17 -25
49 -62 73 -83z m587 -141 c-8 -21 -64 -31 -84 -14 -14 11 -10 14 33 24 54 12
59 11 51 -10z m-256 -57 c-25 -20 -67 -25 -91 -9 -17 11 -10 14 60 28 55 10
62 6 31 -19z m-191 -13 c-18 -18 -64 -25 -68 -11 -3 10 28 22 63 24 17 1 17
-1 5 -13z"/>
<path d="M5757 3720 c-22 -18 -31 -19 -77 -10 -78 15 -138 12 -223 -9 -86 -23
-135 -46 -198 -94 -35 -26 -52 -33 -79 -30 -44 5 -49 1 -88 -69 -36 -64 -39
-84 -18 -114 11 -15 12 -30 6 -60 -15 -62 -12 -114 11 -200 12 -43 21 -94 20
-113 -5 -89 53 -239 108 -282 14 -12 33 -35 41 -52 17 -36 48 -45 93 -28 21 8
27 17 27 41 0 25 4 30 25 30 18 0 28 -7 35 -25 12 -33 49 -47 90 -35 44 13 60
28 60 59 0 24 6 28 47 39 50 14 50 14 79 -34 11 -19 60 -22 93 -5 20 11 26 30
36 122 6 54 8 58 55 88 92 60 141 135 160 243 21 121 -16 275 -89 367 -19 24
-28 45 -25 57 11 41 -12 70 -81 103 -37 17 -71 31 -75 31 -4 0 -19 -9 -33 -20z
m103 -26 c61 -28 70 -38 70 -75 0 -35 -40 -70 -89 -76 -35 -5 -44 -2 -71 25
-37 38 -42 100 -10 132 26 26 34 25 100 -6z m-170 0 c34 -6 35 -7 32 -44 -8
-83 59 -141 138 -120 22 6 42 15 45 20 14 22 42 7 72 -38 54 -79 66 -124 67
-252 1 -107 -1 -119 -27 -172 -34 -69 -97 -127 -181 -167 -146 -69 -371 -99
-491 -66 -75 20 -149 78 -189 149 -39 67 -66 170 -66 251 0 93 5 107 36 99 38
-10 112 23 129 56 21 41 19 93 -6 124 -11 14 -17 31 -14 37 15 23 123 84 190
105 70 23 187 31 265 18z m-478 -145 c26 -14 48 -67 41 -101 -12 -62 -117
-103 -155 -61 -27 29 -25 53 7 116 25 49 33 57 58 57 15 0 37 -5 49 -11z m-30
-609 c51 -66 137 -108 238 -116 89 -7 241 15 342 50 l68 24 0 -23 c0 -12 -3
-36 -6 -52 -5 -27 -11 -31 -60 -40 -63 -11 -72 1 -23 30 18 10 29 20 26 23 -3
3 -16 -1 -29 -10 -24 -16 -82 -38 -130 -50 -24 -5 -28 -3 -28 14 0 11 -5 20
-10 20 -7 0 -8 -13 -5 -34 6 -32 5 -34 -24 -40 -96 -19 -88 -20 -101 18 -13
41 -30 49 -22 11 4 -22 1 -25 -27 -25 -20 0 -31 -5 -31 -14 0 -8 -16 -16 -40
-20 -37 -6 -41 -4 -87 45 -26 28 -54 61 -60 73 -16 26 -40 108 -47 161 -5 34
-4 37 7 21 6 -10 29 -40 49 -66z m636 -177 c-5 -24 -67 -39 -86 -20 -13 14 -9
16 29 25 62 14 61 14 57 -5z m-248 -47 c0 -17 -51 -39 -82 -34 -39 5 -26 22
27 34 28 7 51 13 53 13 1 1 2 -5 2 -13z m-202 -28 c-6 -16 -49 -27 -73 -18
-21 8 -14 13 30 23 37 8 47 7 43 -5z"/>
<path d="M5887 3213 c-12 -12 -7 -50 8 -63 19 -15 35 -5 35 24 0 32 -27 56
-43 39z"/>
<path d="M5595 3173 c-87 -45 -86 -139 3 -162 65 -18 147 13 170 65 18 38 15
53 -17 85 -25 24 -37 29 -78 29 -26 -1 -61 -8 -78 -17z m142 -18 c60 -40 -8
-135 -97 -135 -84 0 -119 62 -67 118 39 42 113 50 164 17z"/>
<path d="M5685 3130 c-10 -16 4 -50 21 -50 8 0 14 8 14 19 0 23 -25 47 -35 31z"/>
<path d="M5590 3096 c0 -29 19 -44 30 -25 9 14 -5 49 -20 49 -6 0 -10 -11 -10
-24z"/>
<path d="M5363 3094 c-7 -18 12 -64 27 -64 16 0 23 26 16 55 -7 28 -33 34 -43
9z"/>
<path d="M2837 3568 c-43 -15 -61 -27 -73 -50 -8 -16 -13 -37 -10 -45 4 -9
-11 -34 -38 -64 -79 -87 -121 -217 -114 -345 7 -111 54 -194 153 -270 l35 -26
0 -84 c0 -82 0 -84 30 -99 43 -22 65 -19 94 16 l26 31 45 -18 c37 -14 45 -21
45 -43 0 -46 33 -71 95 -71 28 0 38 5 47 25 7 16 19 25 35 25 19 0 23 -5 23
-30 0 -24 6 -33 28 -41 40 -16 75 -14 87 6 5 10 37 45 71 79 68 68 101 137
114 241 5 33 20 92 34 130 19 52 26 90 26 150 0 54 5 86 15 99 21 27 19 46
-12 121 -24 58 -30 65 -60 71 -19 4 -37 4 -40 1 -3 -4 -27 13 -54 37 -104 94
-282 156 -409 143 -49 -6 -60 -4 -75 13 -22 24 -44 24 -118 -2z m100 -3 c46
-32 36 -123 -17 -150 -40 -21 -72 -19 -111 8 -36 24 -48 62 -31 93 5 10 36 27
68 40 72 28 65 27 91 9z m268 -40 c74 -20 163 -67 220 -117 l44 -38 -24 -26
c-69 -74 -21 -179 87 -193 l43 -6 0 -70 c0 -140 -90 -312 -193 -368 -105 -57
-230 -55 -421 9 -159 53 -267 129 -315 222 -65 125 -17 371 91 475 29 27 30
27 47 8 70 -77 196 -27 196 78 l0 41 83 0 c45 0 109 -7 142 -15z m377 -231
c21 -50 25 -71 18 -89 -18 -46 -113 -45 -150 2 -46 59 -4 153 68 153 36 0 38
-2 64 -66z m-68 -511 c-13 -75 -62 -164 -120 -220 l-57 -54 -41 14 c-22 8 -40
19 -39 25 1 5 -12 12 -29 16 -24 5 -29 10 -25 26 8 31 -9 24 -23 -10 -14 -35
-11 -34 -78 -15 -55 17 -57 20 -42 59 6 17 6 26 0 26 -6 0 -10 -3 -10 -7 0 -5
-4 -14 -9 -21 -6 -11 -22 -7 -77 18 -37 17 -76 38 -86 47 -10 9 -18 12 -18 7
0 -5 14 -22 32 -37 l33 -28 -39 6 c-79 13 -86 19 -86 75 0 27 2 50 4 50 2 0
34 -14 72 -31 38 -17 111 -42 163 -55 207 -53 365 -15 449 106 15 22 28 39 30
40 2 0 0 -17 -4 -37z m-636 -164 c35 -13 16 -32 -26 -25 -32 5 -51 19 -52 39
0 8 36 1 78 -14z m272 -85 c26 -9 -18 -27 -48 -19 -28 7 -62 32 -62 46 0 6 62
-9 110 -27z m141 -26 c22 -6 39 -15 39 -20 0 -16 -48 -8 -71 12 -28 23 -21 24
32 8z"/>
<path d="M2738 3066 c-13 -29 -5 -56 16 -56 17 0 31 42 22 65 -8 22 -25 18
-38 -9z"/>
<path d="M2922 3025 c-99 -43 -24 -175 101 -175 118 0 135 120 23 171 -49 22
-80 23 -124 4z m124 -21 c19 -9 42 -30 50 -47 47 -91 -109 -131 -180 -46 -31
37 -33 62 -6 89 25 25 88 27 136 4z"/>
<path d="M2940 2969 c-8 -14 -9 -24 -2 -31 14 -14 32 -1 32 22 0 28 -17 33
-30 9z"/>
<path d="M3037 2953 c-11 -10 -8 -53 3 -53 13 0 32 38 25 50 -7 12 -19 13 -28
3z"/>
<path d="M3244 2905 c-8 -33 1 -56 21 -49 17 7 30 47 20 63 -11 20 -34 11 -41
-14z"/>
<path d="M6386 3508 c-3 -13 -6 -49 -6 -80 0 -31 -4 -60 -10 -63 -17 -10 -11
-51 10 -70 25 -22 26 -13 3 22 -15 22 -15 26 -3 21 13 -5 15 10 17 93 0 55 0
99 -2 99 -1 0 -5 -10 -9 -22z"/>
<path d="M796 3205 c-8 -22 11 -65 29 -65 16 0 20 34 9 64 -8 20 -30 21 -38 1z"/>
<path d="M514 3176 c-35 -16 -74 -61 -74 -87 0 -9 11 -31 25 -47 75 -90 259
-4 219 103 -16 40 -108 58 -170 31z m145 -31 c20 -19 22 -27 14 -51 -15 -45
-56 -69 -118 -69 -111 0 -132 90 -32 136 51 23 102 18 136 -16z"/>
<path d="M602 3114 c2 -15 9 -29 16 -32 10 -3 13 4 10 24 -2 15 -9 29 -16 32
-10 3 -13 -4 -10 -24z"/>
<path d="M505 3110 c-10 -16 4 -50 21 -50 8 0 14 8 14 19 0 23 -25 47 -35 31z"/>
<path d="M280 3082 c0 -26 15 -52 31 -52 13 0 18 30 9 55 -13 35 -40 33 -40
-3z"/>
<path d="M1580 2614 c-30 -8 -83 -30 -117 -49 -55 -30 -66 -33 -94 -23 -29 10
-33 8 -85 -43 -45 -45 -54 -59 -54 -89 0 -20 5 -41 11 -47 8 -8 6 -24 -6 -59
-43 -123 -9 -308 78 -426 34 -46 117 -96 191 -115 l69 -18 34 -65 c41 -78 56
-91 97 -83 43 8 54 19 62 59 6 31 9 34 45 36 22 0 44 1 49 2 6 1 16 -10 23
-24 10 -20 21 -26 59 -28 54 -3 88 21 88 62 0 21 16 36 40 36 4 0 11 -11 14
-25 5 -21 12 -25 42 -25 51 0 74 15 74 49 0 16 11 53 25 83 20 44 25 68 24
138 0 52 -6 100 -15 125 -9 22 -20 76 -25 120 -10 93 -22 134 -56 195 -17 30
-25 58 -24 85 2 37 -3 44 -53 88 -57 49 -88 57 -121 34 -15 -12 -27 -11 -77 5
-73 22 -218 23 -298 2z m250 -4 c80 -18 101 -30 90 -50 -27 -50 2 -124 57
-147 37 -15 96 -11 120 9 19 15 33 1 61 -61 20 -46 26 -76 30 -168 6 -151 -11
-207 -87 -284 -63 -62 -137 -97 -262 -123 -287 -59 -469 -4 -556 169 -28 56
-53 161 -53 226 0 63 26 163 40 154 6 -4 33 -6 61 -7 39 0 56 5 75 23 37 35
47 79 30 130 -8 24 -14 44 -13 45 50 35 155 77 217 87 49 8 146 6 190 -3z
m238 -49 c30 -28 52 -56 52 -68 0 -37 -32 -65 -82 -70 -42 -5 -50 -3 -78 25
-47 48 -40 118 15 150 31 18 36 15 93 -37z m-677 -44 c48 -36 51 -102 9 -147
-28 -30 -34 -32 -77 -27 -51 5 -83 33 -83 70 0 28 88 117 115 117 11 0 27 -6
36 -13z m846 -532 c4 -56 1 -82 -17 -130 -11 -33 -24 -70 -27 -81 -4 -17 -15
-23 -51 -28 -28 -4 -48 -2 -50 3 -2 6 -17 8 -33 4 -25 -5 -29 -2 -29 16 0 11
-4 21 -10 21 -5 0 -10 -18 -10 -40 0 -38 -2 -39 -37 -45 -21 -3 -47 -8 -59
-10 -17 -4 -23 3 -31 33 -9 32 -11 33 -12 11 -1 -25 -5 -27 -57 -31 -31 -3
-74 -2 -95 2 -22 4 -39 4 -39 0 0 -10 26 -20 51 -20 34 0 20 -19 -18 -25 -21
-3 -46 -8 -56 -10 -13 -2 -24 10 -42 46 l-25 49 74 0 c40 0 110 7 154 15 224
43 337 126 380 278 14 52 17 56 25 35 5 -12 11 -54 14 -93z m-47 -254 c0 -16
-70 -35 -83 -22 -11 11 -2 17 43 24 14 2 28 5 33 6 4 0 7 -3 7 -8z m-180 -51
c0 -16 -39 -31 -72 -28 -40 4 -48 25 -11 31 53 8 83 7 83 -3z m-266 -45 c-11
-27 -83 -34 -91 -8 -4 12 20 19 69 22 21 1 26 -3 22 -14z"/>
<path d="M1927 2085 c-8 -19 13 -67 27 -62 18 6 13 71 -5 75 -9 2 -19 -4 -22
-13z"/>
<path d="M1630 2068 c-76 -39 -88 -103 -27 -143 66 -43 172 -18 203 49 16 33
16 36 0 61 -19 29 -71 55 -109 55 -12 0 -43 -10 -67 -22z m145 -23 c30 -29 32
-58 5 -85 -81 -81 -252 -24 -186 62 39 52 140 65 181 23z"/>
<path d="M1720 2013 c0 -10 5 -25 10 -33 13 -21 34 2 25 29 -8 25 -35 28 -35
4z"/>
<path d="M1625 2010 c-10 -16 4 -50 21 -50 11 0 14 8 12 27 -3 28 -22 41 -33
23z"/>
<path d="M1403 2004 c-7 -18 12 -64 27 -64 16 0 23 26 16 55 -7 28 -33 34 -43
9z"/>
<path d="M4290 2614 c-55 -15 -90 -42 -90 -73 0 -9 -23 -31 -50 -50 -52 -35
-102 -95 -140 -169 -12 -23 -31 -47 -41 -53 -20 -10 -86 -104 -108 -154 -8
-16 -18 -64 -22 -105 -4 -41 -11 -89 -14 -106 -6 -26 -2 -35 20 -53 32 -25 70
-28 79 -6 4 13 10 14 26 5 16 -9 19 -17 14 -53 -6 -40 -4 -46 26 -70 36 -31
71 -35 95 -11 15 15 19 14 59 -7 43 -22 43 -24 42 -72 -1 -46 1 -50 35 -70
l37 -21 68 53 c50 38 74 51 89 46 11 -3 58 -9 105 -12 72 -4 94 -2 145 18 122
45 256 218 272 350 4 37 13 58 34 79 35 35 36 50 5 131 -21 56 -27 64 -59 73
-25 8 -47 27 -76 65 -81 109 -219 194 -350 214 -58 9 -70 15 -84 39 -18 32
-34 34 -117 12z m100 -14 c27 -27 27 -89 0 -123 -41 -51 -127 -42 -166 18 -14
21 -14 30 -4 55 10 25 23 33 74 49 78 24 73 24 96 1z m125 -55 c103 -17 252
-117 326 -218 l28 -39 -29 -24 c-79 -67 -53 -172 50 -203 40 -12 41 -13 35
-49 -25 -144 -118 -271 -248 -339 -45 -24 -63 -27 -137 -27 -104 1 -179 29
-310 115 -115 75 -195 157 -233 237 -27 57 -29 71 -25 141 6 101 54 206 130
287 75 79 83 82 122 45 42 -41 84 -55 122 -41 45 17 74 50 80 92 6 32 10 37
28 33 11 -2 39 -7 61 -10z m421 -283 c6 -4 21 -36 32 -71 20 -58 20 -67 7 -87
-20 -30 -48 -38 -90 -24 -41 14 -75 53 -75 87 0 31 25 79 47 92 21 12 63 14
79 3z m-973 -49 c-5 -16 -8 -62 -8 -103 0 -66 5 -83 35 -138 21 -39 58 -86 98
-122 71 -65 200 -154 250 -172 17 -7 32 -15 32 -19 0 -4 -16 -19 -36 -34 -40
-30 -51 -28 -110 21 l-29 24 50 -5 50 -5 -53 20 c-30 10 -69 29 -89 41 -29 18
-34 26 -29 48 l6 26 -24 -29 -24 -29 -33 23 c-67 46 -70 50 -54 73 20 29 20
59 0 33 -14 -19 -16 -19 -34 -2 -11 10 -24 15 -30 11 -6 -3 -27 5 -48 19 -36
25 -36 26 -34 88 3 71 25 137 71 208 35 55 55 65 43 23z m-59 -365 c-8 -13
-68 25 -72 46 -3 15 3 13 37 -10 22 -14 38 -31 35 -36z m121 -89 c30 -20 43
-35 37 -41 -17 -17 -92 31 -92 59 0 18 3 17 55 -18z m215 -145 c38 -25 44 -44
16 -44 -20 0 -66 39 -66 56 0 19 4 18 50 -12z"/>
<path d="M4175 2116 c-17 -25 -15 -56 3 -56 16 0 44 38 40 56 -5 28 -25 27
-43 0z"/>
<path d="M4306 2009 c-52 -41 -21 -130 58 -168 54 -26 86 -26 120 0 70 55 -15
189 -120 189 -17 0 -43 -9 -58 -21z m129 -19 c18 -11 41 -37 50 -57 16 -33 16
-40 4 -63 -29 -51 -132 -31 -175 35 -20 30 -21 69 -4 90 18 22 86 19 125 -5z"/>
<path d="M4340 1959 c-7 -11 -9 -24 -5 -27 9 -9 40 13 43 32 5 23 -25 20 -38
-5z"/>
<path d="M4425 1910 c-14 -15 -16 -23 -7 -32 13 -13 42 6 42 28 0 22 -17 24
-35 4z"/>
<path d="M4616 1824 c-23 -22 -21 -54 4 -54 22 0 44 34 36 56 -7 18 -21 18
-40 -2z"/>
<path d="M6352 2477 c-44 -45 -50 -66 -29 -107 11 -21 11 -31 -1 -59 -23 -56
-26 -167 -8 -245 16 -67 74 -192 84 -181 3 3 -6 26 -21 52 -57 106 -77 267
-44 358 12 35 17 40 43 37 l29 -2 -30 16 c-58 33 -61 72 -8 126 20 21 34 40
32 43 -3 2 -24 -15 -47 -38z"/>
<path d="M3215 2280 c-17 -16 -26 -18 -60 -10 -137 32 -328 -13 -450 -105 -25
-20 -49 -29 -78 -29 -39 -1 -42 -3 -74 -60 -32 -57 -42 -109 -23 -121 5 -3 7
-43 4 -98 -4 -69 -1 -106 11 -147 9 -30 20 -95 24 -145 11 -115 40 -191 94
-247 23 -24 49 -56 57 -73 13 -26 20 -30 52 -29 45 1 68 18 68 50 0 36 40 32
62 -6 15 -26 23 -30 58 -30 48 0 95 38 85 68 -4 15 4 21 49 34 l54 15 16 -35
c16 -33 18 -34 63 -29 25 2 49 11 53 17 5 7 11 38 14 69 12 97 15 106 50 125
50 27 114 94 145 151 24 46 26 60 26 170 0 140 -14 192 -75 279 -24 34 -40 68
-40 86 0 48 -10 60 -78 90 -77 35 -82 36 -107 10z m169 -69 c16 -36 -2 -71
-47 -91 -23 -11 -50 -20 -59 -20 -30 0 -78 52 -85 92 -5 32 -1 41 25 67 l30
31 64 -30 c35 -16 67 -39 72 -49z m-221 43 c13 -4 17 -16 17 -47 0 -42 18 -80
48 -104 24 -19 93 -16 129 7 l32 19 35 -41 c55 -63 81 -153 80 -273 0 -82 -4
-109 -23 -153 -67 -152 -291 -255 -556 -256 -99 -1 -116 2 -165 25 -59 28 -83
48 -124 102 -60 78 -103 240 -90 338 6 46 9 50 33 49 60 -4 82 1 111 28 44 38
50 94 18 142 l-25 36 41 31 c73 55 168 94 261 107 33 4 150 -2 178 -10z m-475
-160 c31 -35 30 -97 -2 -129 -48 -48 -134 -40 -151 14 -6 21 32 106 61 136 22
21 62 13 92 -21z m-71 -563 c50 -80 139 -131 254 -145 83 -10 296 26 403 70
17 7 18 4 11 -42 -4 -27 -12 -52 -18 -56 -14 -8 -98 -21 -103 -15 -3 3 11 15
31 27 47 29 38 37 -12 12 -21 -11 -62 -27 -90 -35 -44 -13 -53 -14 -53 -2 0 8
-5 17 -11 20 -7 5 -9 -4 -7 -26 3 -33 2 -33 -51 -45 -30 -7 -58 -11 -62 -8 -4
2 -10 18 -14 34 -4 17 -11 30 -16 30 -6 0 -8 -9 -4 -20 5 -15 0 -21 -22 -26
-15 -4 -31 -11 -34 -16 -3 -5 -23 -13 -44 -18 -36 -8 -40 -7 -82 38 -24 26
-53 64 -64 84 -28 55 -61 188 -45 188 1 0 17 -22 33 -49z m663 -200 c0 -28
-71 -49 -89 -27 -11 13 -8 16 21 25 43 12 68 13 68 2z m-250 -50 c0 -28 -68
-48 -102 -30 -22 12 -20 14 32 25 72 15 70 15 70 5z m-210 -36 c-13 -16 -80
-21 -80 -6 0 10 26 17 69 20 20 1 21 -1 11 -14z"/>
<path d="M3340 1751 c0 -35 27 -62 41 -40 11 18 11 26 -1 50 -16 29 -40 24
-40 -10z"/>
<path d="M3055 1738 c-46 -25 -65 -51 -65 -89 0 -50 35 -79 97 -79 77 0 134
35 148 92 6 22 1 33 -23 58 -26 26 -38 30 -84 30 -29 0 -62 -6 -73 -12z m146
-24 c43 -39 8 -102 -69 -125 -87 -26 -161 37 -116 99 39 51 141 66 185 26z"/>
<path d="M3140 1676 c0 -14 5 -28 11 -32 17 -10 32 12 24 35 -9 29 -35 27 -35
-3z"/>
<path d="M3045 1671 c-7 -13 12 -51 26 -51 14 0 7 52 -8 57 -6 2 -14 -1 -18
-6z"/>
<path d="M2822 1638 c2 -25 8 -34 26 -36 16 -3 22 2 22 16 0 34 -11 52 -32 52
-16 0 -19 -6 -16 -32z"/>
<path d="M304 2133 c-73 -24 -94 -46 -94 -94 0 -11 -18 -41 -39 -67 -80 -94
-116 -212 -109 -347 6 -113 49 -190 146 -266 31 -24 33 -28 39 -113 l6 -88 35
-15 c42 -18 76 -6 93 31 l11 23 49 -20 c40 -17 49 -25 49 -46 0 -34 10 -48 43
-60 48 -18 75 -13 94 17 9 15 18 29 19 30 1 2 12 1 23 -3 15 -4 21 -15 21 -36
0 -22 6 -32 26 -39 48 -19 81 -12 93 18 6 15 27 37 45 50 66 45 119 149 136
266 5 34 20 93 34 131 21 55 26 86 25 147 -1 43 3 83 8 90 24 30 23 57 -4 119
-31 74 -36 79 -81 79 -26 0 -46 11 -85 45 -99 87 -249 139 -384 134 -54 -3
-76 0 -90 12 -31 27 -36 27 -109 2z m95 -7 c40 -48 25 -123 -29 -151 -59 -30
-140 9 -140 68 0 43 7 50 70 74 67 25 84 27 99 9z m263 -42 c76 -18 163 -63
218 -112 l45 -40 -23 -25 c-32 -34 -40 -96 -16 -136 20 -34 90 -67 123 -58 52
13 36 -141 -28 -279 -36 -78 -91 -138 -155 -172 -47 -25 -60 -27 -166 -26 -95
0 -130 5 -203 27 -185 57 -301 137 -354 245 -25 50 -28 68 -27 147 0 133 32
218 118 319 l24 29 32 -26 c79 -67 190 -16 190 86 0 34 2 36 38 39 54 5 119
-2 184 -18z m341 -166 c19 -15 57 -101 57 -131 0 -51 -61 -72 -120 -42 -36 19
-50 43 -50 87 0 67 68 119 113 86z m-37 -589 c-11 -71 -52 -143 -115 -200 -56
-52 -59 -54 -93 -44 -19 5 -43 18 -52 28 -10 9 -25 17 -35 17 -14 0 -17 6 -14
28 3 25 2 24 -14 -8 -10 -19 -18 -36 -19 -38 -1 -2 -28 4 -59 14 -56 18 -56
18 -50 52 4 23 3 32 -4 27 -6 -3 -11 -12 -11 -20 0 -19 -74 6 -132 45 -50 33
-67 29 -23 -5 40 -33 27 -40 -34 -20 l-51 17 0 49 c0 27 2 49 4 49 2 0 28 -11
57 -24 114 -52 227 -79 339 -80 94 -1 111 2 160 25 33 16 73 46 100 76 25 28
47 51 49 52 2 1 1 -18 -3 -40z m-629 -150 c28 -11 28 -11 6 -21 -27 -13 -83 7
-83 29 0 16 22 14 77 -8z m232 -70 c44 -13 51 -23 25 -33 -21 -8 -53 1 -76 22
-21 18 -24 36 -4 29 8 -3 32 -11 55 -18z m190 -43 c23 -8 31 -15 23 -20 -15
-9 -82 12 -82 25 0 12 17 10 59 -5z"/>
<path d="M202 1638 c-15 -15 -16 -55 0 -64 15 -9 40 25 36 50 -4 24 -20 30
-36 14z"/>
<path d="M361 1574 c-34 -29 -38 -51 -16 -93 18 -35 88 -71 137 -71 47 0 98
41 98 79 0 88 -148 145 -219 85z m156 -16 c33 -20 43 -36 43 -74 0 -61 -123
-74 -181 -18 -41 40 -37 82 10 106 39 19 80 15 128 -14z"/>
<path d="M395 1530 c-9 -28 11 -52 25 -30 6 8 9 21 7 29 -4 23 -25 24 -32 1z"/>
<path d="M489 1499 c-7 -14 -8 -24 -1 -31 15 -15 32 0 32 28 0 30 -15 31 -31
3z"/>
<path d="M705 1477 c-19 -30 -13 -60 11 -55 24 4 35 42 20 64 -12 16 -14 16
-31 -9z"/>
<path d="M5390 2134 c-72 -26 -90 -44 -90 -87 0 -21 -12 -43 -39 -72 -22 -24
-51 -65 -65 -93 -35 -68 -60 -201 -52 -271 12 -101 74 -203 152 -251 l34 -22
0 -84 c0 -76 2 -85 23 -98 53 -35 88 -29 115 21 8 14 14 14 61 -2 45 -15 50
-19 45 -40 -17 -67 122 -104 146 -39 7 18 15 24 26 20 9 -3 20 -6 25 -6 5 0 7
-10 4 -23 -8 -32 16 -50 67 -51 34 -1 44 3 57 25 9 15 33 42 54 59 65 56 112
154 121 252 2 29 13 74 24 99 28 65 45 156 38 205 -4 30 0 52 14 78 l19 38
-26 61 c-31 73 -45 87 -89 87 -23 0 -43 11 -75 41 -96 88 -271 147 -405 136
-48 -3 -66 -1 -75 10 -25 30 -43 31 -109 7z m99 -20 c25 -32 27 -66 4 -105
-33 -56 -95 -62 -152 -13 -56 47 -38 93 49 123 72 26 75 25 99 -5z m266 -30
c69 -17 164 -69 217 -118 l38 -35 -24 -26 c-13 -14 -26 -37 -29 -51 -6 -35 9
-87 31 -106 23 -21 89 -41 113 -35 17 5 19 -1 19 -62 0 -172 -106 -352 -235
-400 -160 -60 -483 23 -626 161 -69 66 -99 137 -99 236 0 126 38 237 106 312
l36 39 38 -25 c71 -47 147 -29 177 43 8 20 12 46 9 59 -6 21 -2 23 36 26 62 4
124 -2 193 -18z m322 -160 c33 -9 80 -125 65 -159 -14 -31 -53 -41 -103 -26
-39 12 -69 49 -69 86 0 29 30 82 53 93 27 13 27 13 54 6z m-20 -576 c-13 -83
-50 -152 -112 -213 -59 -58 -63 -61 -96 -52 -19 5 -42 17 -52 28 -10 10 -27
19 -38 19 -16 0 -18 5 -13 25 9 37 -5 30 -22 -11 -11 -26 -19 -34 -31 -30 -8
4 -35 11 -60 18 -25 6 -42 16 -40 22 15 40 17 56 8 56 -6 0 -11 -7 -11 -15 0
-8 -8 -15 -17 -15 -23 0 -122 46 -146 67 -9 9 -20 14 -23 11 -6 -6 19 -33 44
-47 30 -17 5 -23 -40 -10 -23 7 -46 15 -49 18 -4 3 -9 30 -13 58 l-7 53 33
-20 c77 -45 288 -100 381 -100 113 0 214 48 272 127 16 23 32 42 34 42 2 1 1
-14 -2 -31z m-655 -160 c38 -11 46 -30 16 -36 -24 -5 -68 16 -68 33 0 18 2 18
52 3z m291 -88 c15 0 6 -19 -12 -25 -26 -8 -91 20 -91 39 0 13 6 13 48 1 26
-8 50 -15 55 -15z m157 -35 c28 -10 32 -14 18 -20 -21 -8 -70 7 -76 23 -5 15
13 14 58 -3z"/>
<path d="M5280 1625 c-11 -28 -4 -55 14 -55 17 0 37 46 30 65 -9 23 -33 18
-44 -10z"/>
<path d="M5460 1587 c-29 -15 -45 -54 -36 -90 10 -40 68 -79 124 -84 56 -5 92
12 110 50 38 80 -106 171 -198 124z m113 -13 c32 -7 77 -57 77 -85 0 -35 -36
-59 -87 -59 -85 0 -149 61 -124 117 10 22 63 44 91 37 8 -1 27 -6 43 -10z"/>
<path d="M5487 1543 c-4 -3 -7 -17 -7 -30 0 -33 24 -24 28 10 3 26 -7 35 -21
20z"/>
<path d="M5574 1505 c-4 -8 -3 -23 0 -32 6 -15 8 -15 23 -1 16 17 12 48 -7 48
-6 0 -13 -7 -16 -15z"/>
<path d="M5786 1474 c-12 -31 -6 -54 13 -54 20 0 31 18 31 51 0 23 -35 26 -44
3z"/>
<path d="M1760 1179 c-63 -18 -100 -46 -100 -75 0 -7 -20 -27 -44 -43 -55 -38
-104 -95 -141 -162 -15 -28 -45 -67 -66 -86 -58 -53 -112 -168 -115 -248 -2
-36 -8 -74 -14 -85 -13 -25 -1 -50 34 -74 32 -20 45 -20 68 1 17 15 20 15 35
0 14 -13 15 -21 5 -42 -27 -59 71 -134 115 -87 18 19 19 19 66 -7 29 -16 45
-31 42 -39 -18 -48 -16 -62 10 -87 39 -36 67 -31 134 21 l60 46 66 -12 c138
-26 248 9 346 111 70 72 125 176 134 254 5 35 14 60 25 68 26 18 42 55 34 80
-32 105 -45 126 -79 133 -24 4 -41 17 -61 45 -43 62 -147 154 -207 183 -63 31
-148 56 -193 56 -23 0 -34 6 -42 24 -18 41 -40 45 -112 25z m90 -19 c49 -49 0
-154 -72 -154 -42 0 -96 36 -104 70 -10 38 18 69 78 87 70 20 75 20 98 -3z
m133 -56 c124 -32 260 -126 319 -222 l21 -34 -26 -21 c-46 -40 -59 -90 -35
-142 12 -27 73 -65 104 -65 14 0 16 -8 11 -54 -7 -68 -32 -125 -86 -196 -169
-224 -396 -218 -694 19 -133 106 -190 224 -168 348 20 111 101 244 184 304
l39 29 20 -25 c68 -87 194 -64 213 38 8 42 13 43 98 21z m436 -334 c27 -73 25
-97 -11 -123 -23 -17 -31 -18 -59 -8 -81 28 -104 99 -53 160 20 25 34 31 64
31 37 0 38 -1 59 -60z m-1000 1 c-7 -19 -10 -64 -7 -105 8 -128 78 -225 249
-345 37 -26 90 -58 118 -71 28 -14 51 -27 51 -30 0 -3 -18 -18 -40 -33 l-40
-28 -45 31 c-25 17 -43 35 -40 41 4 5 13 5 25 -1 24 -13 50 -13 50 0 0 6 -9
10 -20 10 -20 0 -112 42 -137 62 -9 7 -10 16 -2 29 6 13 6 19 0 19 -6 0 -15
-9 -21 -20 -15 -27 -30 -25 -79 10 -41 30 -41 31 -26 60 19 37 19 51 0 26 -14
-19 -15 -19 -34 -2 -11 10 -26 16 -33 14 -7 -3 -28 5 -47 18 -34 23 -34 24
-32 90 3 80 28 151 77 217 39 54 50 57 33 8z m-55 -363 c-8 -13 -68 25 -72 46
-3 15 3 13 37 -10 22 -14 38 -31 35 -36z m124 -90 c43 -30 45 -33 23 -36 -27
-4 -74 27 -79 52 -5 23 3 20 56 -16z m213 -145 c34 -23 38 -28 24 -36 -20 -11
-68 20 -73 47 -5 22 2 20 49 -11z"/>
<path d="M1637 682 c-23 -25 -22 -52 3 -52 22 0 44 34 36 56 -7 19 -20 18 -39
-4z"/>
<path d="M1760 570 c-36 -36 -19 -119 33 -153 121 -79 231 9 146 118 -43 54
-141 73 -179 35z m104 -4 c73 -31 108 -105 69 -148 -44 -49 -164 10 -178 87
-6 33 0 46 30 63 26 15 39 15 79 -2z"/>
<path d="M1795 519 c-8 -25 -1 -34 20 -26 19 8 20 47 1 47 -8 0 -18 -9 -21
-21z"/>
<path d="M1880 475 c-7 -8 -9 -23 -5 -32 6 -16 8 -16 26 6 18 22 18 41 0 41
-5 0 -14 -7 -21 -15z"/>
<path d="M2072 388 c-17 -17 -15 -58 3 -58 18 0 49 45 40 60 -8 13 -28 13 -43
-2z"/>
<path d="M4215 1194 c-11 -2 -45 -9 -75 -15 -30 -6 -87 -28 -126 -48 -61 -31
-75 -35 -103 -27 -30 9 -35 6 -87 -45 -56 -55 -67 -87 -44 -130 8 -14 6 -34
-6 -76 -33 -115 0 -304 70 -396 59 -77 130 -118 246 -141 20 -4 34 -22 63 -81
l37 -75 45 0 c48 0 75 24 75 67 0 15 6 23 18 23 9 0 34 3 55 6 29 5 37 3 37
-9 0 -27 30 -47 68 -47 50 0 82 23 82 59 0 26 15 41 39 41 4 0 13 -12 20 -26
11 -24 16 -26 53 -21 49 7 61 17 64 57 1 17 12 52 25 78 29 60 32 192 4 262
-9 25 -21 81 -26 125 -8 86 -27 148 -59 200 -11 18 -19 47 -18 68 1 40 -16 64
-84 118 -36 29 -37 29 -76 14 -36 -15 -45 -15 -91 -1 -54 16 -173 28 -206 20z
m217 -37 c36 -15 37 -17 27 -46 -14 -39 3 -93 38 -121 31 -24 108 -27 140 -5
21 15 23 13 47 -27 36 -63 49 -121 50 -228 1 -116 -18 -179 -76 -244 -52 -60
-103 -89 -212 -120 -295 -86 -527 -31 -616 145 -54 105 -72 231 -45 325 l17
60 57 -4 c53 -4 61 -2 90 24 40 36 50 88 27 135 -13 26 -14 34 -4 42 30 20
127 62 173 74 67 17 238 11 287 -10z m177 -33 c56 -50 63 -77 32 -115 -16 -19
-29 -24 -69 -24 -59 0 -89 21 -98 71 -7 40 1 69 29 94 31 29 49 25 106 -26z
m-664 -59 c27 -26 34 -80 14 -117 -17 -32 -73 -50 -118 -38 -31 8 -42 17 -50
42 -6 17 -11 33 -11 35 0 2 21 26 46 53 53 57 82 63 119 25z m832 -520 c4 -61
1 -91 -12 -125 -9 -25 -22 -59 -28 -77 -10 -27 -17 -32 -52 -36 -22 -2 -45 0
-52 5 -6 5 -23 6 -37 2 -22 -5 -26 -3 -26 15 0 12 -5 21 -11 21 -6 0 -9 -15
-7 -37 3 -35 1 -38 -27 -44 -17 -4 -45 -7 -62 -8 -29 -1 -33 2 -33 23 0 14 -4
28 -10 31 -6 4 -10 -5 -10 -20 l0 -27 -95 4 c-96 3 -125 -5 -60 -18 46 -8 45
-20 -2 -28 -64 -10 -70 -8 -96 38 l-24 43 101 6 c301 19 482 131 512 318 7 40
8 41 17 18 5 -13 11 -60 14 -104z m-47 -254 c0 -12 -26 -21 -61 -21 -39 0 -37
18 4 23 17 2 38 5 45 5 6 1 12 -2 12 -7z m-170 -41 c0 -18 -66 -43 -94 -36
-52 13 -26 27 87 45 4 0 7 -4 7 -9z m-286 -67 c-23 -17 -59 -17 -74 1 -9 12
-5 16 27 21 21 4 43 8 48 9 18 5 18 -17 -1 -31z"/>
<path d="M4474 656 c-10 -25 0 -61 17 -64 22 -4 31 22 19 53 -11 28 -28 33
-36 11z"/>
<path d="M4173 635 c-66 -28 -83 -109 -32 -148 56 -41 174 -16 208 44 44 80
-73 149 -176 104z m130 -17 c55 -21 46 -92 -16 -121 -43 -21 -89 -22 -127 -2
-68 35 -36 115 55 135 31 7 40 5 88 -12z"/>
<path d="M4266 581 c-9 -14 4 -41 21 -41 9 0 13 8 11 22 -3 23 -23 35 -32 19z"/>
<path d="M4170 551 c0 -21 5 -31 16 -31 11 0 14 8 12 27 -4 39 -28 42 -28 4z"/>
<path d="M3952 573 c-12 -23 2 -63 23 -63 20 0 20 53 1 69 -12 10 -17 9 -24
-6z"/>
<path d="M669 841 c-18 -14 -30 -17 -53 -10 -49 14 -186 10 -251 -6 -70 -19
-147 -56 -197 -96 -29 -22 -47 -29 -82 -29 -43 0 -47 -2 -66 -40 -30 -58 -24
-73 7 -17 22 38 31 47 54 47 69 0 113 -97 69 -152 -11 -15 -39 -33 -60 -39
-33 -10 -43 -9 -65 5 l-25 16 1 -42 c1 -24 4 -33 6 -20 4 18 11 22 45 22 113
0 172 101 107 184 l-19 24 39 31 c94 75 245 119 366 108 85 -8 90 -11 90 -56
0 -101 87 -150 178 -101 l38 21 20 -23 c40 -48 79 -143 89 -219 29 -210 -57
-348 -263 -425 -46 -17 -55 -23 -35 -23 15 -1 39 5 54 11 23 11 28 10 32 -1 3
-10 8 -9 16 7 6 11 33 35 61 54 111 74 163 190 152 342 -7 100 -33 180 -81
245 -25 33 -36 59 -36 83 0 46 -15 63 -83 93 -69 30 -78 31 -108 6z m103 -21
c51 -23 67 -35 72 -56 13 -51 -36 -94 -109 -94 -72 0 -113 103 -60 155 13 14
26 25 28 25 2 0 34 -13 69 -30z"/>
<path d="M5756 841 c-14 -16 -23 -18 -49 -10 -47 13 -195 11 -252 -5 -72 -19
-140 -51 -194 -90 -33 -25 -60 -36 -91 -38 -44 -3 -46 -5 -77 -63 -36 -67 -38
-79 -20 -115 9 -18 10 -42 3 -91 -8 -58 -6 -81 13 -156 13 -48 22 -105 21
-127 -1 -51 19 -146 32 -146 6 0 7 8 3 18 -4 9 -10 42 -15 72 -7 52 -7 54 8
30 29 -45 109 -120 128 -120 15 0 12 4 -11 19 -92 56 -165 217 -165 362 0 96
5 106 46 101 104 -12 168 87 113 177 l-21 34 29 23 c88 72 244 119 363 111
100 -8 107 -11 102 -48 -9 -63 43 -129 102 -129 18 0 49 9 71 20 36 18 40 19
57 3 28 -25 75 -127 89 -190 16 -80 7 -197 -20 -258 -39 -88 -118 -155 -235
-200 -34 -14 -51 -24 -39 -25 12 0 34 5 50 11 19 7 29 7 31 0 6 -18 22 -13 22
7 1 10 25 32 56 52 107 68 156 163 157 305 1 113 -27 211 -80 280 -26 35 -37
60 -38 86 -1 48 -15 63 -82 94 -66 30 -84 31 -107 6z m166 -56 c4 -5 8 -25 8
-43 0 -66 -116 -99 -165 -46 -38 40 -37 97 1 131 l24 22 63 -26 c34 -15 65
-32 69 -38z m-699 -120 c54 -55 34 -139 -38 -163 -53 -17 -83 -8 -100 31 -12
28 -11 36 7 72 37 72 49 85 78 85 16 0 38 -10 53 -25z"/>
<path d="M2840 696 c-69 -24 -95 -56 -85 -104 4 -15 0 -25 -10 -28 -27 -11
-93 -114 -117 -182 -17 -52 -23 -90 -23 -167 0 -91 3 -105 29 -157 16 -32 33
-58 38 -58 12 0 10 9 -11 38 -72 103 -54 330 35 449 56 74 61 76 103 48 54
-37 104 -34 147 9 27 27 34 42 34 74 0 36 3 40 31 46 120 24 324 -42 413 -133
l37 -38 -25 -38 c-31 -45 -33 -79 -6 -123 22 -35 55 -52 110 -56 l35 -2 -1
-80 c-1 -54 -8 -96 -23 -133 -26 -69 -18 -80 11 -15 16 37 23 74 26 149 3 62
10 107 18 120 20 28 18 48 -15 120 l-30 65 -45 0 c-34 0 -48 5 -56 19 -15 30
-138 107 -210 132 -50 18 -91 24 -174 26 -94 2 -112 5 -131 23 -26 24 -24 24
-105 -4z m109 -22 c27 -34 26 -63 -1 -104 -38 -55 -101 -58 -155 -8 -27 25
-30 70 -7 89 19 16 100 47 126 48 9 1 26 -11 37 -25z m598 -192 c6 -4 24 -36
39 -70 l27 -63 -20 -27 c-25 -34 -55 -39 -103 -17 -47 21 -65 52 -57 102 10
60 72 101 114 75z"/>
<path d="M6386 629 c-3 -17 -6 -50 -6 -72 0 -22 -5 -56 -12 -74 -11 -30 -10
-36 10 -55 12 -13 22 -17 22 -11 0 6 -7 16 -15 23 -14 12 -11 35 3 26 4 -2 8
41 9 95 0 54 0 99 -2 99 -1 0 -5 -14 -9 -31z"/>
<path d="M800 331 c-13 -25 2 -61 25 -61 20 0 20 53 1 69 -12 10 -17 8 -26 -8z"/>
<path d="M5884 335 c-9 -23 5 -65 22 -65 21 0 29 27 16 56 -13 27 -30 31 -38
9z"/>
<path d="M1 299 c-1 -14 6 -49 15 -78 8 -29 13 -60 10 -68 -8 -21 13 -142 26
-150 7 -4 9 3 4 21 -3 14 -9 47 -12 74 l-6 47 35 -51 c38 -55 81 -94 103 -94
7 0 -9 21 -37 46 -53 51 -100 134 -123 224 -9 33 -15 45 -15 29z"/>
<path d="M539 311 c-42 -14 -76 -40 -88 -70 -35 -83 79 -142 179 -91 44 23 60
45 60 88 0 55 -82 95 -151 73z m123 -41 c25 -30 23 -44 -11 -82 -24 -27 -36
-32 -88 -36 -52 -4 -64 -1 -82 17 -38 38 -22 82 44 120 32 19 116 7 137 -19z"/>
<path d="M600 236 c0 -28 19 -44 30 -26 11 17 0 50 -16 50 -8 0 -14 -10 -14
-24z"/>
<path d="M500 221 c0 -10 7 -24 15 -31 12 -10 16 -9 21 4 3 9 4 23 0 31 -8 21
-36 19 -36 -4z"/>
<path d="M5622 313 c-12 -2 -38 -19 -57 -37 -44 -41 -47 -81 -9 -117 35 -33
128 -35 171 -3 84 63 60 150 -44 159 -21 2 -48 1 -61 -2z m103 -25 c49 -22 47
-81 -4 -115 -58 -39 -152 -28 -170 20 -26 68 92 132 174 95z"/>
<path d="M5683 244 c-3 -8 1 -23 10 -32 15 -14 17 -14 23 1 8 21 -1 47 -16 47
-6 0 -13 -7 -17 -16z"/>
<path d="M5592 213 c4 -39 28 -42 28 -4 0 21 -5 31 -16 31 -11 0 -14 -8 -12
-27z"/>
<path d="M284 226 c-10 -25 0 -61 17 -64 19 -4 30 18 22 46 -6 25 -32 37 -39
18z"/>
<path d="M5365 220 c-8 -24 11 -60 30 -60 18 0 20 51 3 68 -17 17 -26 15 -33
-8z"/>
<path d="M2740 191 c-13 -25 -13 -48 0 -56 18 -11 40 15 40 46 0 34 -24 39
-40 10z"/>
<path d="M2904 137 c-17 -15 -26 -33 -26 -51 0 -33 31 -80 58 -85 14 -2 10 5
-14 27 -55 52 -34 109 45 118 46 6 97 -18 127 -59 20 -27 20 -29 4 -58 -17
-29 -12 -39 10 -17 31 31 0 103 -58 133 -45 23 -114 19 -146 -8z"/>
<path d="M2940 95 c-7 -8 -9 -22 -6 -31 5 -13 9 -14 21 -4 16 13 21 50 6 50
-5 0 -14 -7 -21 -15z"/>
<path d="M3037 73 c-11 -10 -8 -53 3 -53 13 0 32 38 25 50 -7 12 -19 13 -28 3z"/>
<path d="M3252 48 c-7 -7 -12 -20 -12 -31 0 -13 6 -18 23 -15 16 2 22 10 22
27 0 28 -15 37 -33 19z"/>
</g>
</svg>
